<?xml version="1.0" standalone="no"?>
<!DOCTYPE svg PUBLIC "-//W3C//DTD SVG 20010904//EN"
 "http://www.w3.org/TR/2001/REC-SVG-20010904/DTD/svg10.dtd">
<svg version="1.0" xmlns="http://www.w3.org/2000/svg"
 width="532.000000pt" height="720.000000pt" viewBox="0 0 532.000000 720.000000"
 preserveAspectRatio="xMidYMid meet">
<g transform="translate(0.000000,720.000000) scale(0.100000,-0.100000)"
fill="#000000" stroke="none">
<path d="M2676 7188 c-3 -7 -7 -31 -10 -53 -7 -50 -26 -118 -31 -113 -3 2 2
28 10 58 8 30 14 69 13 85 l-1 30 -4 -30 c-10 -68 -37 -155 -74 -234 -21 -46
-36 -87 -33 -92 3 -5 0 -8 -7 -7 -6 2 -14 -3 -17 -11 -3 -9 0 -11 9 -6 8 5 11
4 6 -1 -5 -5 -14 -9 -19 -9 -6 0 -13 -6 -16 -14 -3 -9 0 -11 9 -6 8 5 11 4 6
-1 -5 -5 -14 -9 -19 -9 -6 0 -13 -6 -16 -14 -3 -8 0 -11 7 -7 17 11 13 0 -6
-15 -15 -12 -16 -12 -8 1 8 13 7 13 -8 1 -20 -16 -23 -36 -4 -25 6 4 3 -2 -7
-14 -23 -26 -34 -29 -15 -4 11 15 11 15 -2 2 -58 -57 -222 -232 -211 -226 6 4
12 2 12 -3 0 -6 10 -11 23 -11 33 0 119 -44 147 -75 14 -16 19 -25 12 -21 -10
6 -12 0 -6 -31 8 -47 18 -60 12 -15 -3 20 -1 29 5 23 5 -5 6 -28 2 -53 -6 -33
-9 -38 -15 -24 -7 20 -7 20 -12 0 -3 -10 -9 -28 -14 -38 -6 -15 -4 -17 7 -11
8 5 11 5 6 -1 -5 -5 -14 -9 -19 -9 -6 0 -13 -6 -16 -14 -3 -8 0 -11 7 -7 17
11 13 0 -6 -15 -15 -12 -16 -12 -8 1 4 8 -5 3 -21 -12 -78 -72 -230 -50 -310
45 -15 18 -31 32 -37 32 -5 0 -16 11 -25 25 l-14 25 21 -25 c24 -30 28 -20 5
15 -9 14 -21 22 -27 18 -5 -3 -7 -2 -4 4 4 6 -10 48 -29 94 -34 78 -103 323
-105 372 -1 16 -2 18 -6 5 -2 -9 7 -65 22 -124 14 -59 23 -109 21 -111 -5 -6
-56 207 -56 235 0 12 -4 22 -10 22 -6 0 -10 -118 -10 -334 0 -184 -3 -337 -7
-339 -5 -3 -8 146 -8 331 l1 337 -6 -340 c-3 -245 -8 -346 -17 -362 -7 -12
-13 -24 -13 -28 0 -3 6 -3 13 1 6 4 1 -5 -12 -19 -33 -37 -82 -50 -159 -44
-63 5 -66 7 -116 58 l-51 54 51 -49 c49 -45 56 -48 116 -53 68 -6 128 7 148
32 6 8 -5 5 -27 -7 -31 -16 -52 -19 -112 -15 -74 4 -75 4 -120 53 -25 27 -49
49 -53 49 -3 0 -10 4 -15 9 -5 5 -3 6 5 2 10 -6 11 -1 6 21 -4 15 -11 37 -16
48 -6 15 -7 13 -3 -8 4 -19 2 -26 -5 -22 -15 9 -12 45 5 51 8 4 15 10 15 16 0
5 -5 6 -11 2 -8 -4 -8 0 0 15 14 24 23 28 14 5 -4 -10 6 -7 32 10 21 14 42 26
48 26 6 0 8 3 5 6 -4 3 -21 -2 -38 -11 -18 -9 -29 -12 -26 -7 3 6 26 18 51 28
25 9 45 20 45 25 0 11 -57 53 -105 77 -92 45 -474 144 -550 141 -11 0 54 -16
145 -34 237 -48 409 -106 475 -160 11 -9 -5 -2 -36 15 -115 62 -291 110 -609
165 -131 23 -172 33 -125 30 l70 -4 -59 10 c-43 8 -66 7 -88 -2 l-30 -12 37
-13 c55 -19 138 -77 213 -150 l67 -67 -69 63 c-70 63 -180 140 -200 140 -6 0
17 -16 51 -37 65 -38 159 -123 232 -208 24 -27 40 -43 35 -35 -7 13 -5 13 9 1
18 -15 23 -26 7 -16 -17 10 -11 -12 7 -26 15 -12 16 -12 8 1 -8 13 -7 13 8 1
19 -15 23 -26 6 -15 -7 4 -10 1 -7 -7 3 -8 10 -14 15 -14 6 0 15 -4 20 -9 5
-5 2 -6 -6 -1 -9 5 -12 3 -9 -6 3 -8 10 -14 15 -14 6 0 15 -4 20 -9 5 -5 2 -6
-6 -1 -9 5 -12 3 -9 -6 3 -8 10 -14 15 -14 6 0 15 -4 20 -9 5 -5 2 -6 -6 -1
-9 5 -12 3 -9 -6 3 -8 10 -14 15 -14 6 0 15 -4 20 -9 5 -5 3 -6 -4 -2 -16 9
-16 1 -2 -25 5 -11 14 -17 19 -14 5 3 12 0 16 -6 4 -8 3 -9 -4 -5 -7 4 -12 5
-12 3 0 -11 147 -276 151 -273 2 3 5 -5 5 -17 1 -12 27 -80 58 -150 31 -70 59
-139 62 -152 3 -14 12 -25 20 -25 7 0 290 -90 628 -200 l615 -200 651 208
c385 122 655 214 660 222 4 8 10 26 14 40 4 18 1 16 -9 -7 -24 -52 -27 -38 -4
19 21 54 47 102 34 63 -15 -45 -15 -48 1 -15 9 19 62 127 118 240 121 245 111
225 96 215 -9 -5 -11 -4 -6 4 4 6 11 9 16 6 5 -3 14 3 19 14 14 26 14 34 -1
25 -8 -4 -10 -3 -5 2 5 5 14 9 20 9 5 0 12 6 15 14 3 9 0 11 -9 6 -8 -5 -11
-4 -6 1 5 5 12 9 17 9 8 0 60 70 60 81 0 3 -6 2 -12 -2 -8 -4 -10 -3 -5 2 5 5
14 9 20 9 5 0 12 6 15 14 3 9 0 11 -8 6 -9 -6 -11 -4 -6 4 5 7 11 10 14 7 7
-7 32 13 32 26 0 6 -8 4 -17 -3 -15 -11 -14 -10 1 9 21 24 31 29 20 10 -3 -7
15 12 42 42 96 109 165 170 255 221 30 17 45 28 34 24 -42 -13 -130 -73 -203
-139 l-77 -68 69 67 c75 74 175 143 219 152 16 3 24 10 20 14 -11 11 -271 -29
-460 -71 -197 -43 -377 -106 -398 -140 -3 -5 -15 -10 -26 -10 -10 0 -19 -5
-19 -11 0 -5 5 -7 10 -4 6 3 10 2 10 -3 0 -5 13 -12 29 -15 17 -4 45 -20 63
-37 18 -18 29 -29 23 -27 -6 3 -10 -19 -10 -58 0 -39 4 -61 10 -57 6 3 6 1 2
-4 -5 -5 -12 -9 -15 -9 -4 0 -27 -21 -51 -48 -24 -26 -51 -47 -60 -48 -12 0
-12 -2 -3 -6 8 -3 37 16 65 43 l52 49 -53 -55 -52 -55 -75 0 c-48 0 -79 5 -87
13 -11 11 -8 11 15 3 16 -6 49 -10 75 -10 44 2 43 2 -16 9 -35 4 -68 12 -75
19 -15 15 -30 14 -21 -1 4 -7 -2 -4 -14 6 -23 20 -29 32 -11 20 7 -4 10 -1 7
7 -3 8 -10 13 -16 12 -6 -2 -9 3 -7 10 3 6 -2 32 -10 57 l-15 45 5 -40 c4 -37
4 -38 -8 -15 -9 18 -12 111 -12 342 0 175 -3 318 -7 318 -5 0 -8 -5 -8 -11 0
-5 -4 -8 -8 -5 -4 2 -7 -12 -5 -32 2 -36 2 -36 -6 -7 -8 26 -9 27 -10 7 0 -13
-10 -60 -22 -104 -11 -44 -18 -82 -16 -85 3 -2 13 30 23 73 10 42 20 72 22 66
6 -18 -40 -175 -48 -163 -4 7 -12 -7 -19 -31 -7 -24 -30 -81 -52 -127 -44 -94
-44 -95 -26 -85 7 4 9 3 4 -2 -5 -5 -14 -9 -19 -9 -6 0 -13 -6 -16 -14 -3 -9
0 -11 9 -6 8 5 11 4 6 -1 -5 -5 -12 -9 -16 -9 -4 0 -22 -17 -40 -37 -42 -48
-85 -74 -143 -87 -58 -13 -138 1 -163 29 -10 11 -21 17 -25 15 -4 -3 -14 3
-21 12 -12 14 -12 16 0 9 9 -6 12 -4 9 5 -3 8 -10 14 -16 14 -5 0 -14 4 -19 9
-5 6 -2 6 6 1 11 -6 13 -4 7 11 -5 10 -11 28 -14 38 -5 20 -5 20 -12 0 -6 -14
-9 -9 -15 24 -4 25 -3 48 2 53 6 6 8 -3 5 -23 -6 -45 4 -32 12 15 6 31 4 37
-6 31 -7 -4 -2 5 12 21 28 31 114 75 148 75 12 0 22 5 22 11 0 5 6 7 13 3 9
-6 -70 79 -216 231 -7 6 -7 5 -2 -5 6 -10 1 -8 -13 4 -25 21 -31 36 -7 16 8
-7 15 -8 15 -2 0 11 -31 39 -37 34 -3 -2 -8 0 -11 4 -4 4 -1 4 7 -1 9 -5 12
-3 9 6 -3 8 -10 14 -16 14 -5 0 -14 4 -19 9 -5 5 -2 6 6 1 9 -5 12 -3 9 6 -3
8 -10 14 -16 14 -5 0 -14 4 -19 9 -5 5 -2 6 6 1 9 -5 12 -3 9 6 -3 8 -10 14
-15 14 -6 0 -15 4 -20 9 -5 5 -3 6 5 2 18 -11 15 -2 -22 72 -36 72 -75 188
-77 231 -2 22 -2 23 -6 4 -2 -12 0 -38 6 -58 5 -19 6 -33 1 -30 -4 3 -11 22
-14 42 -14 79 -18 93 -27 93 -5 0 -11 -6 -13 -12z"/>
<path d="M809 4977 c-322 -221 -594 -408 -603 -416 -15 -13 -15 -15 3 -28 18
-12 35 -10 136 13 63 15 113 29 111 32 -3 2 -55 -8 -116 -23 -62 -14 -114 -24
-117 -22 -2 3 11 8 29 12 18 4 172 41 342 81 170 41 312 74 315 74 3 0 -21
-16 -54 -36 -33 -20 -75 -45 -92 -56 -18 -11 -33 -17 -33 -15 0 3 15 15 33 27
69 46 4 11 -151 -83 -89 -54 -162 -100 -162 -103 0 -3 3 -3 7 -1 5 3 62 37
128 77 144 86 143 86 130 72 -9 -9 -563 -346 -590 -359 -5 -3 1 5 15 17 25 22
24 22 -15 -1 -54 -31 -81 -49 -72 -49 4 0 20 7 35 16 l27 16 -25 -21 c-14 -11
-32 -21 -41 -21 -12 0 -20 -20 -32 -82 -13 -67 -16 -161 -15 -483 0 -385 1
-404 24 -517 13 -64 40 -165 60 -225 47 -141 159 -377 175 -367 8 4 9 3 5 -4
-13 -21 69 -142 96 -142 5 0 -1 10 -14 22 -13 13 -17 17 -8 10 20 -15 50 -16
50 -1 0 5 -6 7 -13 3 -7 -4 -9 -3 -4 2 5 5 14 9 19 9 6 0 13 6 16 14 3 9 0 11
-9 5 -12 -7 -12 -5 0 9 16 20 26 23 15 4 -5 -8 -2 -8 9 2 20 16 23 36 5 25 -8
-4 -10 -3 -5 2 5 5 14 9 20 9 5 0 12 6 15 14 3 9 0 11 -9 6 -8 -5 -11 -4 -6 1
5 5 14 9 20 9 5 0 12 6 15 14 3 9 0 11 -9 6 -8 -5 -11 -4 -6 1 5 5 14 9 20 9
5 0 12 6 15 14 3 9 0 11 -9 5 -12 -7 -12 -5 0 9 16 20 26 23 15 5 -5 -9 -2 -9
9 1 20 16 23 36 4 25 -7 -4 -9 -3 -4 2 5 5 14 9 20 9 5 0 12 6 15 14 3 9 0 11
-8 6 -9 -5 -11 -4 -6 4 4 6 11 9 15 7 8 -5 51 47 51 61 0 4 -12 -5 -26 -22
l-26 -30 22 32 c11 18 26 32 32 30 6 -1 13 4 16 12 3 9 0 11 -9 6 -8 -5 -11
-4 -6 1 5 5 14 9 20 9 5 0 12 6 15 14 3 9 0 11 -9 6 -8 -5 -11 -4 -6 1 5 5 14
9 20 9 5 0 12 6 15 14 3 9 0 11 -9 5 -12 -7 -12 -5 0 9 7 9 15 17 16 17 1 0 3
-41 4 -92 1 -51 4 -95 7 -97 3 -3 4 43 3 102 -1 59 2 111 6 115 4 4 5 -72 1
-168 -3 -96 -6 -300 -6 -453 0 -213 -3 -276 -12 -271 -7 4 -2 -7 11 -24 12
-18 27 -32 33 -32 7 0 1 12 -12 27 -14 16 130 -125 318 -312 188 -187 342
-342 342 -345 0 -3 -144 139 -320 315 -176 176 -320 317 -320 314 0 -8 659
-663 671 -668 12 -4 49 27 49 41 0 5 -6 6 -12 2 -8 -4 -10 -3 -5 2 5 5 14 9
19 9 6 0 13 6 16 14 3 9 0 11 -9 6 -8 -5 -11 -4 -6 1 5 5 14 9 19 9 6 0 13 6
16 14 3 9 0 11 -9 6 -8 -5 -11 -4 -6 1 5 5 14 9 19 9 6 0 13 6 16 14 3 8 0 11
-7 7 -17 -11 -13 0 6 15 15 12 16 12 8 -1 -8 -13 -7 -13 8 -1 20 16 23 36 5
25 -8 -4 -10 -3 -5 2 5 5 14 9 19 9 6 0 13 6 16 14 3 9 0 11 -9 6 -8 -5 -10
-4 -6 0 4 5 14 10 22 11 13 2 15 -28 15 -200 l0 -203 404 -396 c222 -219 408
-397 412 -397 5 0 -16 26 -46 58 -30 31 23 -19 118 -113 94 -93 172 -172 172
-175 0 -2 -54 49 -120 115 -66 66 -120 117 -120 114 0 -15 232 -233 251 -236
12 -2 29 2 37 9 12 10 14 10 8 1 -4 -7 -4 -13 -1 -13 9 0 715 650 715 658 0 3
-21 -14 -47 -38 -27 -25 -75 -70 -107 -100 -32 -30 -56 -50 -53 -44 4 6 57 58
119 115 62 57 106 95 98 85 -35 -45 19 0 208 174 l202 185 0 195 0 195 40 -70
c21 -38 43 -70 49 -70 5 0 13 -4 18 -9 5 -6 2 -6 -6 -1 -11 6 -13 4 -8 -9 4
-10 7 -20 7 -22 0 -2 10 -4 22 -4 12 0 38 15 58 33 21 19 18 14 -6 -11 -24
-23 -40 -42 -36 -42 11 0 242 234 242 245 0 5 -28 -17 -62 -50 -35 -33 67 72
227 233 159 160 292 292 295 292 3 0 -101 -106 -230 -235 -129 -129 -232 -235
-229 -235 7 0 459 453 471 472 4 7 7 38 6 68 l-1 55 -6 -60 -6 -60 -7 85 c-4
47 -10 244 -14 438 -6 339 -4 382 22 340 4 -7 3 -8 -4 -4 -9 5 -11 -35 -10
-156 l2 -163 3 145 c3 137 11 178 28 149 6 -8 4 -10 -5 -4 -8 5 -11 3 -8 -6 3
-8 10 -14 15 -14 6 0 15 -4 20 -9 5 -5 3 -6 -4 -2 -19 11 -16 -9 4 -25 15 -12
16 -12 8 1 -8 13 -7 13 8 1 19 -15 23 -26 6 -15 -7 4 -10 1 -7 -7 3 -8 10 -14
15 -14 6 0 15 -4 20 -9 5 -5 2 -6 -6 -1 -9 5 -12 3 -9 -6 3 -8 10 -14 15 -14
6 0 15 -4 20 -9 5 -5 2 -6 -6 -1 -9 5 -12 3 -9 -6 3 -8 10 -14 15 -14 6 0 15
-4 20 -9 5 -5 2 -6 -6 -1 -9 5 -12 3 -9 -6 3 -8 10 -14 15 -14 6 0 15 -4 20
-9 5 -5 3 -6 -4 -2 -19 11 -16 -9 4 -25 15 -12 16 -12 8 1 -8 13 -7 13 8 1 19
-15 23 -26 6 -15 -7 4 -10 1 -7 -7 3 -8 10 -14 15 -14 6 0 15 -4 20 -9 5 -5 2
-6 -6 -1 -9 5 -12 3 -9 -6 3 -8 10 -14 15 -14 6 0 15 -4 20 -9 5 -5 2 -6 -6
-1 -9 5 -12 3 -9 -6 3 -8 10 -14 15 -14 6 0 15 -4 20 -9 5 -5 2 -6 -6 -1 -9 5
-12 3 -9 -6 3 -8 10 -14 15 -14 6 0 15 -4 20 -9 5 -5 2 -6 -6 -1 -9 5 -12 3
-9 -6 3 -8 10 -13 16 -12 5 1 16 -4 22 -12 14 -17 50 -20 50 -4 0 5 -6 7 -12
3 -8 -4 -10 -3 -5 2 5 5 14 9 20 9 5 0 12 6 15 14 3 9 0 11 -8 6 -9 -5 -11 -4
-6 4 4 6 11 9 16 6 12 -7 71 96 65 113 -3 7 0 10 5 7 12 -8 77 128 126 263 36
98 84 278 83 309 0 10 -14 -36 -30 -102 -16 -66 -33 -123 -38 -128 -5 -5 3 31
16 80 13 48 32 135 43 193 18 93 19 98 16 40 -4 -47 -2 -56 3 -32 5 18 9 212
9 430 1 303 -3 416 -14 476 -8 43 -14 80 -14 82 0 3 -9 8 -19 12 -22 8 -860
516 -857 519 1 1 173 -40 381 -91 209 -52 396 -97 415 -101 30 -7 32 -9 15
-16 -14 -5 -15 -8 -4 -8 8 -1 24 6 35 14 13 10 14 14 5 15 -14 0 -531 328
-531 337 0 5 -18 16 245 -152 278 -178 282 -181 270 -168 -5 6 -174 117 -375
245 -427 274 -390 250 -390 245 0 -3 54 -40 120 -82 66 -42 120 -79 120 -82 0
-3 -10 1 -22 9 -13 9 -176 113 -363 232 -187 120 -344 223 -350 228 -15 16 -4
9 240 -147 245 -157 255 -163 240 -147 -23 23 -471 304 -490 306 -11 2 -29 9
-41 16 -18 11 -96 -12 -649 -195 l-629 -207 -622 206 c-341 113 -624 206 -628
206 -4 0 -47 -27 -96 -60 -50 -33 -90 -58 -90 -56 0 3 41 33 92 67 l92 62 381
-126 c209 -70 385 -127 390 -126 13 1 -756 259 -770 259 -5 -1 -274 -182 -596
-403z m1586 -487 l262 -139 263 139 c144 77 268 140 275 140 24 0 280 -178
353 -245 99 -92 118 -127 132 -247 6 -54 8 -117 5 -141 l-7 -43 -281 -141
-282 -140 -28 -106 -29 -107 -30 16 c-68 35 -149 128 -164 190 -7 27 -7 27
-15 6 -11 -29 6 -114 33 -172 12 -25 55 -78 95 -118 l74 -72 6 -165 c3 -91 9
-165 12 -165 4 0 25 23 46 52 40 51 40 52 55 197 l15 145 45 4 c142 10 236 84
284 225 21 61 23 63 94 100 l72 38 162 -132 c90 -73 167 -136 172 -140 14 -12
-21 -92 -75 -174 -84 -125 -191 -214 -388 -325 -8 -5 1 -80 50 -388 12 -73 18
-136 15 -139 -3 -4 -82 -23 -174 -44 -92 -20 -160 -39 -152 -42 8 -3 89 -16
180 -29 l165 -24 -3 -29 c-6 -47 -38 -112 -64 -129 -21 -13 -36 -12 -183 19
-88 19 -161 33 -162 31 -1 -1 38 -32 88 -70 87 -65 90 -68 74 -86 -44 -48
-158 -51 -258 -7 -32 15 -101 55 -155 90 -53 35 -125 80 -160 101 -71 43 -72
46 -21 152 38 80 127 165 216 206 37 17 119 60 181 96 l114 65 -31 19 c-41 26
-100 33 -158 19 -26 -7 -140 -53 -252 -102 l-203 -90 -220 96 c-250 110 -295
120 -371 87 -26 -12 -47 -25 -47 -29 0 -10 217 -131 278 -156 124 -50 225
-162 260 -289 l10 -37 -116 -72 c-65 -40 -144 -89 -177 -109 -131 -80 -250
-102 -315 -57 -19 12 -35 27 -37 32 -1 6 38 39 87 74 49 36 88 66 86 68 -1 2
-76 -12 -165 -31 -159 -33 -161 -34 -185 -15 -23 18 -48 72 -60 129 l-5 26
182 30 182 30 -162 33 c-89 19 -167 37 -173 41 -10 6 -4 66 24 249 20 132 36
249 36 259 0 13 -28 35 -90 72 -109 64 -193 135 -261 220 -49 61 -119 186
-119 213 0 16 328 282 346 281 7 -1 41 -18 76 -37 60 -33 64 -38 81 -92 42
-137 144 -219 284 -226 48 -3 45 7 64 -184 11 -106 12 -112 51 -163 23 -29 43
-50 46 -47 3 2 8 76 12 164 l7 159 70 69 c92 89 125 153 130 253 4 73 3 74
-10 39 -30 -80 -87 -146 -166 -192 l-30 -18 -16 56 c-8 30 -22 79 -30 108
l-14 53 -280 138 c-154 76 -282 145 -285 153 -9 23 -7 114 5 200 15 113 64
179 224 299 82 61 243 164 258 164 6 0 128 -63 272 -140z m494 -2501 c96 -51
183 -101 193 -111 23 -23 24 -107 1 -177 -18 -56 -73 -128 -90 -118 -6 4 -21
36 -34 72 l-23 65 -34 -65 c-48 -90 -102 -149 -168 -181 -46 -23 -63 -26 -110
-21 -112 12 -208 93 -240 205 l-17 57 -26 -68 c-14 -37 -31 -67 -38 -67 -12 0
-51 47 -72 87 -19 38 -31 125 -23 171 l7 43 220 119 220 119 30 -18 c16 -10
108 -60 204 -112z"/>
</g>
</svg>
